<svg xmlns="http://www.w3.org/2000/svg"  viewBox="0 0 64 64" width="64px" height="64px"><radialGradient id="rj72T7dvCVHpE4K4E6R-Fa" cx="32.5" cy="31.5" r="30.516" gradientUnits="userSpaceOnUse"><stop offset="0" stop-color="#ecd5a0"/><stop offset=".106" stop-color="#efdaa9"/><stop offset=".437" stop-color="#f6e6c1"/><stop offset=".744" stop-color="#faedd0"/><stop offset="1" stop-color="#fdf0d5"/></radialGradient><path fill="url(#rj72T7dvCVHpE4K4E6R-Fa)" d="M64,12.984L64,12.984c0-1.666-1.35-3.016-3.016-3.016h-6c-0.819,0-1.484-0.664-1.484-1.484v0	C53.5,7.664,54.164,7,54.984,7H56.5C57.881,7,59,5.881,59,4.5v0C59,3.119,57.881,2,56.5,2h-46C9.119,2,8,3.119,8,4.5v0	C8,5.881,9.119,7,10.5,7h2C13.881,7,15,8.119,15,9.5v0c0,1.381-1.119,2.5-2.5,2.5H7c-1.657,0-3,1.343-3,3v0c0,1.657,1.343,3,3,3h16	c1.657,0,3,1.343,3,3v0c0,1.657-1.343,3-3,3H6.5C4.567,24,3,25.567,3,27.5v0C3,29.433,4.567,31,6.5,31h4c0.828,0,1.5,0.672,1.5,1.5	l0,0c0,0.828-0.672,1.5-1.5,1.5h-7C2.119,34,1,35.119,1,36.5v0C1,37.881,2.119,39,3.5,39h6c1.381,0,2.5,1.119,2.5,2.5v0	c0,1.381-1.119,2.5-2.5,2.5H8c-1.657,0-3,1.343-3,3v0c0,1.657,1.343,3,3,3h5.5c1.381,0,2.5,1.119,2.5,2.5v0	c0,1.381-1.119,2.5-2.5,2.5H8c-1.657,0-3,1.343-3,3v0c0,1.657,1.343,3,3,3h48c1.657,0,3-1.343,3-3v0c0-1.657-1.343-3-3-3h-0.5	c-1.381,0-2.5-1.119-2.5-2.5v0c0-1.381,1.119-2.5,2.5-2.5H59c1.657,0,3-1.343,3-3v0c0-1.657-1.343-3-3-3H47.5	c-2.485,0-4.5-2.015-4.5-4.5v0c0-2.485,2.015-4.5,4.5-4.5H56c1.657,0,3-1.343,3-3v0c0-1.657-1.343-3-3-3h0c-1.105,0-2-0.895-2-2v0	c0-1.105,0.895-2,2-2h4.5c1.381,0,2.5-1.119,2.5-2.5v0c0-1.381-1.119-2.5-2.5-2.5H59c-1.105,0-2-0.895-2-2v0c0-1.105,0.895-2,2-2	h1.984C62.65,16,64,14.65,64,12.984z"/><linearGradient id="rj72T7dvCVHpE4K4E6R-Fb" x1="30.934" x2="30.934" y1="59.082" y2="5.868" gradientUnits="userSpaceOnUse"><stop offset="0" stop-color="#50c2e8"/><stop offset="1" stop-color="#66e1f5"/></linearGradient><path fill="url(#rj72T7dvCVHpE4K4E6R-Fb)" d="M50.12,12.12C44.11,6.11,34.9,4.85,26.29,8	c-4.05,1.47-7.96,3.92-11.35,7.31C10.36,19.89,7.48,25.45,6.42,31c-0.93,4.83-0.48,9.66,1.41,13.82c1.56,3.45,6.07,4.29,8.76,1.62	l5.44-5.41c1.36-1.37,3.58-1.37,4.94,0c1.37,1.36,1.37,3.58,0,4.94l-0.29,0.3c-3.74,3.76-0.66,9.9,4.33,9.55	c0.29-0.01,0.58-0.05,0.88-0.12c5.33-1.15,10.63-3.97,15.05-8.39c2.24-2.24,4.08-4.72,5.48-7.31	C57.67,30.35,57.09,19.09,50.12,12.12z M33,38c-1.93,0-3.5-1.57-3.5-3.5S31.07,31,33,31s3.5,1.57,3.5,3.5S34.93,38,33,38z"/><linearGradient id="rj72T7dvCVHpE4K4E6R-Fc" x1="22.21" x2="22.21" y1="41.315" y2="8.436" gradientUnits="userSpaceOnUse"><stop offset="0" stop-color="#61d6f0"/><stop offset="1" stop-color="#76e4f6"/></linearGradient><path fill="url(#rj72T7dvCVHpE4K4E6R-Fc)" d="M38,11c0,1.66-1.34,3-3,3h-8	c-0.55,0-1.05,0.22-1.41,0.59C25.22,14.95,25,15.45,25,16c0,1.1,0.9,2,2,2h3c0.55,0,1.05,0.22,1.41,0.59C31.78,18.95,32,19.45,32,20	c0,1.1-0.9,2-2,2H15c-0.55,0-1.05,0.22-1.41,0.59C13.22,22.95,13,23.45,13,24c0,1.1,0.9,2,2,2h0.5c0.69,0,1.32,0.28,1.77,0.73	C17.72,27.18,18,27.81,18,28.5c0,1.38-1.12,2.5-2.5,2.5H6.42c1.06-5.55,3.94-11.11,8.52-15.69c3.39-3.39,7.3-5.84,11.35-7.31H35	C36.66,8,38,9.34,38,11z"/><linearGradient id="rj72T7dvCVHpE4K4E6R-Fd" x1="40.71" x2="40.71" y1="51.098" y2="34.956" gradientUnits="userSpaceOnUse"><stop offset="0" stop-color="#4bbce5"/><stop offset="1" stop-color="#5bd3ef"/></linearGradient><path fill="url(#rj72T7dvCVHpE4K4E6R-Fd)" d="M52.42,40c-1.4,2.59-3.24,5.07-5.48,7.31	c-4.42,4.42-9.72,7.24-15.05,8.39c-0.3,0.07-0.59,0.11-0.88,0.12c-0.43-0.14-0.82-0.39-1.13-0.7C29.34,54.58,29,53.83,29,53	c0-1.66,1.34-3,3-3h6c0.55,0,1.05-0.22,1.41-0.59C39.78,49.05,40,48.55,40,48s-0.22-1.05-0.59-1.41C39.05,46.22,38.55,46,38,46	c-1.66,0-3-1.34-3-3c0-1.66,1.34-3,3-3H52.42z"/><linearGradient id="rj72T7dvCVHpE4K4E6R-Fe" x1="32" x2="32" y1="21.391" y2="11.217" gradientUnits="userSpaceOnUse"><stop offset="0" stop-color="#feaa53"/><stop offset=".612" stop-color="#ffcd49"/><stop offset="1" stop-color="#ffde44"/></linearGradient><circle cx="32" cy="16" r="4" fill="url(#rj72T7dvCVHpE4K4E6R-Fe)"/><linearGradient id="rj72T7dvCVHpE4K4E6R-Ff" x1="20" x2="20" y1="17.674" y2="28.349" gradientUnits="userSpaceOnUse"><stop offset="0" stop-color="#00d772"/><stop offset=".996" stop-color="#00b26e"/><stop offset="1" stop-color="#00b26e"/></linearGradient><circle cx="20" cy="21" r="4" fill="url(#rj72T7dvCVHpE4K4E6R-Ff)"/><linearGradient id="rj72T7dvCVHpE4K4E6R-Fg" x1="14.5" x2="14.5" y1="27.717" y2="41.43" gradientUnits="userSpaceOnUse"><stop offset="0" stop-color="#fd334d"/><stop offset="1" stop-color="#feaa53"/></linearGradient><circle cx="14.5" cy="32.5" r="4" fill="url(#rj72T7dvCVHpE4K4E6R-Fg)"/><linearGradient id="rj72T7dvCVHpE4K4E6R-Fh" x1="45" x2="45" y1="57.783" y2="29.738" gradientUnits="userSpaceOnUse"><stop offset="0" stop-color="#e3714d"/><stop offset=".25" stop-color="#e4754e"/><stop offset="1" stop-color="#e77b50"/></linearGradient><path fill="url(#rj72T7dvCVHpE4K4E6R-Fh)" d="M45,30l-3,1l1,25c0,1.105,0.895,2,2,2	s2-0.895,2-2l1-25L45,30z"/><linearGradient id="rj72T7dvCVHpE4K4E6R-Fi" x1="45" x2="45" y1="28.956" y2="19.831" gradientUnits="userSpaceOnUse"><stop offset="0" stop-color="#f5cb63"/><stop offset=".076" stop-color="#f6cc6a"/><stop offset=".458" stop-color="#fdd088"/><stop offset=".672" stop-color="#ffd194"/><stop offset="1" stop-color="#ffd194"/></linearGradient><path fill="url(#rj72T7dvCVHpE4K4E6R-Fi)" d="M51,22.5c0-0.828-0.672-1.5-1.5-1.5h-9	c-0.828,0-1.5,0.672-1.5,1.5c0,0.396,0.157,0.754,0.408,1.022L42,28l3,1l3-1l2.592-4.478C50.843,23.254,51,22.896,51,22.5z"/><linearGradient id="rj72T7dvCVHpE4K4E6R-Fj" x1="49.804" x2="40.12" y1="29.5" y2="29.5" gradientUnits="userSpaceOnUse"><stop offset="0" stop-color="#dbdee1"/><stop offset=".085" stop-color="#dee1e4"/><stop offset=".606" stop-color="#eff1f2"/><stop offset="1" stop-color="#f5f6f7"/></linearGradient><rect width="6" height="3" x="42" y="28" fill="url(#rj72T7dvCVHpE4K4E6R-Fj)"/></svg>